<?xml version="1.0" standalone="no"?>
<!DOCTYPE svg PUBLIC "-//W3C//DTD SVG 20010904//EN"
 "http://www.w3.org/TR/2001/REC-SVG-20010904/DTD/svg10.dtd">
<svg version="1.0" xmlns="http://www.w3.org/2000/svg"
 width="80px"  viewBox="0 0 360.000000 360.000000"
 preserveAspectRatio="xMidYMid meet" >
<metadata>
Created by potrace 1.15, written by Peter Selinger 2001-2017
</metadata>
<g transform="translate(0.000000,360.000000) scale(0.100000,-0.100000)"
fill="#FFEAC0" stroke="none" >
<path d="M384 3501 c-94 -23 -177 -91 -218 -180 l-21 -46 0 -1485 0 -1485 21
-46 c31 -67 87 -124 152 -156 l57 -28 1410 0 c1363 0 1412 1 1459 19 60 23
128 83 164 145 l27 46 0 1505 0 1505 -27 45 c-36 62 -93 115 -153 142 l-50 23
-1395 2 c-767 0 -1409 -2 -1426 -6z m1933 -222 c136 -15 269 -51 378 -103 117
-55 172 -92 259 -175 118 -114 189 -237 227 -399 19 -79 21 -109 16 -337 -5
-282 -16 -349 -83 -475 -86 -165 -290 -281 -540 -306 -64 -7 -65 -7 -59 -33 3
-14 50 -248 104 -519 82 -411 96 -495 85 -510 -11 -15 -40 -17 -291 -20 -173
-2 -290 1 -306 7 l-27 11 -1 417 c0 230 -2 414 -5 408 -2 -5 -37 -192 -78
-414 -41 -222 -80 -409 -86 -415 -7 -7 -78 -12 -194 -14 -164 -3 -184 -1 -204
15 -19 16 -31 68 -94 433 l-73 415 -2 -415 c-3 -409 -3 -415 -24 -432 -19 -16
-48 -18 -280 -18 -337 0 -315 -19 -243 207 54 168 261 823 270 854 4 14 -6 18
-58 24 -273 31 -468 147 -553 327 -58 124 -70 207 -70 493 1 245 1 252 28 340
81 260 257 446 527 556 85 34 213 67 310 78 111 13 953 13 1067 0z"/>
<path d="M1235 3236 c-424 -60 -723 -308 -795 -657 -37 -179 -24 -533 26 -691
75 -238 293 -355 695 -375 l126 -6 6 33 c16 75 12 83 -68 141 -60 43 -74 58
-70 75 3 14 -5 30 -26 50 -109 103 -183 236 -199 355 -49 376 62 581 352 646
62 15 139 17 508 18 457 0 526 -5 635 -46 199 -74 289 -276 256 -579 -9 -89
-17 -117 -51 -186 -23 -48 -68 -114 -111 -163 -50 -59 -69 -88 -66 -102 4 -15
-12 -32 -74 -76 -51 -37 -77 -63 -75 -73 2 -8 7 -32 11 -52 l6 -38 76 0 c110
0 274 27 382 62 166 55 282 161 332 302 40 116 51 225 47 471 -4 205 -7 238
-27 300 -98 301 -343 501 -711 581 -101 22 -1044 30 -1185 10z m431 -151 c25
-66 48 -123 51 -127 2 -5 21 12 41 36 20 25 40 45 44 45 3 1 9 -21 13 -49 4
-27 10 -52 14 -54 4 -3 29 42 56 100 l48 105 52 -96 c29 -53 56 -96 61 -95 5
1 26 21 46 46 20 24 39 41 41 37 3 -5 8 -32 12 -60 4 -29 10 -53 14 -53 4 0
42 61 86 135 43 75 79 134 81 132 1 -1 12 -59 24 -127 11 -69 23 -137 26 -153
l6 -27 54 46 54 46 0 -66 c0 -36 2 -66 4 -66 3 0 61 20 130 45 69 24 126 42
126 40 0 -3 -20 -51 -45 -107 -25 -56 -45 -106 -45 -111 0 -5 28 -6 65 -2 36
3 65 3 65 -2 -1 -4 -14 -24 -31 -43 l-29 -35 172 -37 c94 -21 176 -39 181 -41
8 -2 -72 -38 -278 -123 l-40 -16 64 -33 65 -32 -55 -18 c-30 -10 -58 -21 -62
-25 -5 -4 37 -40 92 -81 55 -41 100 -76 101 -79 0 -3 -49 -18 -110 -34 -60
-16 -110 -32 -110 -35 0 -4 20 -27 45 -51 25 -24 45 -48 45 -53 0 -4 -31 -5
-70 -1 -38 3 -70 3 -70 -2 0 -5 51 -60 113 -122 82 -83 105 -112 87 -107 -56
13 -345 63 -348 60 -2 -1 4 -31 12 -66 8 -35 13 -65 11 -67 -4 -4 -93 47 -99
57 -3 4 25 39 62 78 128 137 176 243 193 422 27 302 -57 497 -256 591 -91 42
-138 49 -418 62 -304 13 -734 -1 -830 -26 -215 -58 -338 -217 -354 -459 -6
-105 9 -272 32 -337 8 -24 14 -44 12 -46 -1 -2 -92 7 -202 19 l-200 22 65 36
c36 20 107 58 158 84 50 27 92 51 92 55 0 4 -28 18 -62 32 l-61 25 71 28 c40
16 72 31 72 34 -1 3 -49 39 -107 80 l-106 74 104 29 c57 16 110 31 118 34 10
3 1 18 -32 52 -26 26 -47 51 -47 55 0 4 29 7 65 7 36 0 65 2 65 4 0 5 -88 280
-97 303 -5 12 103 -52 242 -143 l28 -18 -6 72 c-3 39 -3 72 1 72 3 0 28 -21
54 -47 37 -36 49 -43 53 -31 4 9 21 62 38 118 l32 103 65 -96 c36 -53 67 -96
70 -97 3 0 21 28 40 62 l34 63 15 -48 c8 -26 17 -47 21 -47 4 0 28 63 55 140
27 77 52 137 56 133 4 -5 29 -62 55 -128z m-701 -1156 c21 -34 66 -92 101
-129 l64 -67 -121 -32 c-66 -18 -122 -31 -124 -29 -2 2 14 44 35 93 61 136 63
125 -21 118 -70 -6 -72 -6 -58 13 31 44 74 94 80 94 3 0 23 -28 44 -61z"/>
<path d="M2133 2444 l-112 -216 18 -45 18 -46 42 62 c23 34 46 59 50 57 5 -3
14 -26 21 -51 7 -25 16 -47 20 -50 3 -2 20 21 36 51 16 29 32 54 35 54 4 0 15
-22 25 -49 19 -55 29 -57 39 -10 7 30 -64 459 -75 459 -3 0 -55 -97 -117 -216z"/>
<path d="M1317 2191 l-77 -267 22 -42 c22 -39 38 -54 38 -33 0 5 14 39 32 76
l31 68 26 -71 c14 -39 28 -73 31 -76 3 -2 18 27 35 65 16 38 32 69 35 69 4 0
19 -29 35 -65 15 -36 30 -65 34 -65 3 0 15 29 25 65 10 36 22 68 27 70 4 3 18
-26 30 -65 13 -38 25 -67 28 -64 3 3 13 25 22 50 l17 45 -150 247 c-82 136
-153 250 -156 254 -4 4 -42 -114 -85 -261z" />
<path d="M2095 2139 c-22 -32 -42 -59 -45 -59 -3 0 -14 26 -26 57 l-20 57 -95
-179 c-54 -101 -103 -181 -111 -183 -10 -2 -25 13 -39 37 -12 23 -26 41 -30
41 -3 0 -19 -34 -34 -75 -15 -42 -29 -74 -31 -72 -3 2 -15 35 -28 73 l-23 69
-24 -74 -25 -74 -34 76 c-18 42 -36 77 -39 77 -3 0 -19 -32 -35 -70 -17 -39
-33 -70 -37 -70 -4 0 -17 29 -29 65 -12 36 -25 65 -30 65 -4 0 -20 -29 -36
-64 -15 -36 -32 -62 -36 -60 -5 3 -20 29 -34 57 l-27 51 -19 -63 c-11 -36 -16
-66 -11 -70 5 -3 40 -28 77 -56 l68 -50 -5 -67 c-9 -107 -10 -108 -130 -108
l-103 0 -48 -152 c-26 -84 -99 -314 -162 -510 -63 -196 -114 -360 -114 -363 0
-3 118 -4 263 -3 l262 3 3 421 c2 359 4 424 17 434 17 14 40 1 50 -29 3 -9 36
-196 75 -414 38 -219 72 -402 75 -407 4 -6 78 -10 185 -10 178 0 180 0 185 23
2 12 39 209 81 437 41 228 82 425 90 438 12 19 18 21 30 11 12 -10 14 -83 14
-460 l0 -449 285 0 c242 0 285 2 285 14 0 8 -45 237 -100 508 -55 271 -100
496 -100 501 0 4 -41 7 -91 7 l-90 0 -13 33 c-7 17 -16 55 -20 84 l-6 51 81
57 c67 47 80 60 76 78 -3 12 -20 101 -37 197 -18 96 -33 177 -35 178 -2 2 -9
-15 -16 -37 -14 -48 -18 -46 -49 32 l-23 59 -36 -68 -35 -67 -21 61 c-11 33
-22 63 -25 65 -3 3 -23 -21 -45 -54z" />

</g>
</svg>
